<?xml version="1.0" standalone="no"?><!DOCTYPE svg PUBLIC "-//W3C//DTD SVG 1.1//EN" "http://www.w3.org/Graphics/SVG/1.1/DTD/svg11.dtd"><svg t="1575888108468" class="icon" viewBox="0 0 1080 1024" version="1.1" xmlns="http://www.w3.org/2000/svg" p-id="2063" xmlns:xlink="http://www.w3.org/1999/xlink" width="210.9375" height="200"><defs><style type="text/css"></style></defs><path d="M821.159909 1023.999994c-1.896687 0-3.898745-0.105371-5.900803-0.210743-15.911093-0.948343-30.241614-5.69006-38.56596-9.904919L538.237497 896.500508l-240.246964 117.383824c-18.334637 9.167318-65.857172 18.650751-96.836386-9.061947-26.237497-20.125952-39.514303-53.950196-33.929615-87.036839l0.210743-0.948343 49.208479-252.78617L28.134184 489.766612l-0.316114-0.316114C3.161144 465.531173-5.900803 429.072642 4.741716 396.512856c10.431776-32.349043 38.776703-56.479111 72.284832-61.642313l262.480346-47.733278L456.99609 50.47293c15.594978-31.189957 46.679564-50.472937 81.346779-50.472937 34.351101 0 66.173287 19.809837 81.241408 50.578308L736.9681 286.926522l262.374974 46.152706c34.034987 5.163202 61.747685 28.766413 72.495575 61.642313 10.642519 32.665157 1.685944 69.123688-22.86561 92.937641L1048.446182 488.18604 859.936612 664.051033l47.83865 253.629142c5.69006 32.8759-7.481375 66.700144-33.824244 87.036839C860.041984 1017.256219 841.601976 1023.999994 821.159909 1023.999994zM813.467792 940.545785c2.002058 0.7376 5.163202 1.369829 7.376003 1.475201l0 0 2.739658-1.896687c2.528915-1.791315 3.898745-5.057831 3.477259-8.113604l-56.057625-297.04219 221.069356-206.211978c2.10743-2.212801 2.84503-5.479317 1.896687-8.429718l-0.105371-0.210743c-1.053715-3.161144-3.688002-5.479317-6.954517-5.900803l-1.264458-0.210743-303.785964-53.317967L545.929615 86.720718c-1.369829-2.84503-4.425602-4.636345-7.692118-4.636345-3.371887 0-6.42766 1.896687-8.008232 5.057831L394.616176 360.37044 89.671126 415.795836c-3.161144 0.421486-5.900803 2.739658-6.849146 5.795431l-0.105371 0.316114c-0.948343 2.950401-0.210743 6.216917 2.002058 8.53509l221.174727 204.420663-57.743569 297.04219c-0.421486 3.161144 0.842972 6.322289 3.266516 8.008232l1.896687 1.369829c2.739658 0.105371 6.954517-0.421486 9.27269-1.159086l275.862523-134.770117L813.467792 940.545785z" p-id="2064"></path></svg>